<svg xmlns="http://www.w3.org/2000/svg" version="1.1" xmlns:xlink="http://www.w3.org/1999/xlink" xmlns:svgjs="http://svgjs.dev/svgjs" width="1000" height="1000" viewBox="0 0 1000 1000"><rect width="1000" height="1000" fill="#000000"></rect><g transform="matrix(0.7,0,0,0.7,149.57575757575756,457.51378975191085)"><svg viewBox="0 0 396 48" data-background-color="#ffffff" preserveAspectRatio="xMidYMid meet" height="121" width="1000" xmlns="http://www.w3.org/2000/svg" xmlns:xlink="http://www.w3.org/1999/xlink"><g id="tight-bounds" transform="matrix(1,0,0,1,0.2400000000000091,0.07719116774825352)"><svg viewBox="0 0 395.52 47.84561766450349" height="47.84561766450349" width="395.52"><g><svg viewBox="0 0 501.3578734931991 60.648708354177074" height="47.84561766450349" width="395.52"><g><rect width="5.442152347111155" height="60.648708354177074" x="86.1492490332315" y="0" fill="#ffffff" opacity="1" stroke-width="0" stroke="transparent" fill-opacity="1" class="rect-qz-0" data-fill-palette-color="primary" rx="1%" id="qz-0" data-palette-color="#35185a"></rect></g><g transform="matrix(1,0,0,1,105.83787349319908,0.1508674337168543)"><svg viewBox="0 0 395.52000000000004 60.346973486743366" height="60.346973486743366" width="395.52000000000004"><g id="textblocktransform"><svg viewBox="0 0 395.52000000000004 60.346973486743366" height="60.346973486743366" width="395.52000000000004" id="textblock"><g><svg viewBox="0 0 395.52000000000004 60.346973486743366" height="60.346973486743366" width="395.52000000000004"><g transform="matrix(1,0,0,1,0,0)"><svg width="395.52000000000004" viewBox="3.05 -37.1 299.83 45.75" height="60.346973486743366" data-palette-color="#35185a"><path d="M21.95-7.6L21.95-7.6Q24.9-7.6 24.9-12.48 24.9-17.35 21.95-17.35L21.95-17.35Q20.8-17.35 19.88-16.57 18.95-15.8 18.95-14.4L18.95-14.4 18.95-10.55Q18.95-9.15 19.88-8.38 20.8-7.6 21.95-7.6ZM5.95-25.45L5.95-25.45 15.15-25.4Q16.35-25.4 17.25-24.68 18.15-23.95 18.2-22.6L18.2-22.6Q20.15-24.35 22.93-25.25 25.7-26.15 28.4-26.15L28.4-26.15Q33.1-26.15 36.1-22.83 39.1-19.5 39.1-12.75L39.1-12.75Q39.1-8.9 38.05-6.18 37-3.45 35.2-2L35.2-2Q31.75 0.65 26.98 0.65 22.2 0.65 19.5-2.45L19.5-2.45Q19.15-2.8 18.98-2.65 18.8-2.5 18.8-2.2L18.8-2.2Q18.8 1.35 18.5 5.55L18.5 5.55Q18.4 7.2 17.85 7.93 17.3 8.65 15.6 8.65L15.6 8.65 6 8.65Q4.35 8.65 3.78 7.85 3.2 7.05 3.15 5.4L3.15 5.4Q3.05 0.65 3.05-6.75L3.05-6.75 3.15-23.1Q3.15-24.1 4.08-24.78 5-25.45 5.95-25.45ZM58.3-12.5Q58.3-6.9 61.25-6.9 64.2-6.9 64.2-12.5L64.2-12.5Q64.2-15.05 63.6-16.43 63-17.8 61.25-17.8 59.5-17.8 58.9-16.43 58.3-15.05 58.3-12.5L58.3-12.5ZM79.9-12.5Q79.9 1.1 61.25 1.1 42.6 1.1 42.6-12.5L42.6-12.5Q42.6-18.95 47.35-22.5 52.1-26.05 61.25-26.05 70.4-26.05 75.15-22.5 79.9-18.95 79.9-12.5L79.9-12.5ZM88.1-25.45L88.1-25.45 97.85-25.45Q99.55-25.45 100.2-24.73 100.85-24 100.85-22.55L100.85-22.55 100.85-20.75Q103.65-26.05 109.95-26.05L109.95-26.05Q112.05-26.05 113.4-24.7 114.75-23.35 114.75-21.1 114.75-18.85 113.55-16.63 112.35-14.4 110.2-14.4L110.2-14.4Q109.2-14.4 107.4-15.43 105.6-16.45 104.5-16.45 103.4-16.45 102.22-15.65 101.05-14.85 101.05-13L101.05-13Q101.05-4.95 100.75-2.35L100.75-2.35Q100.6-1.5 99.9-0.85 99.2-0.2 97.42-0.08 95.65 0.05 93.9 0.05 92.15 0.05 87.95-0.15L87.95-0.15Q86.75-0.2 86.05-0.85 85.35-1.5 85.25-2.35L85.25-2.35Q84.9-5.6 84.9-12.3 84.9-19 85.1-21.48 85.3-23.95 85.85-24.7 86.4-25.45 88.1-25.45ZM119.84-11.55L119.84-18.2Q119.84-19 118.74-19L118.74-19Q116.79-19 116.44-20.3L116.44-20.3Q116.24-20.95 116.24-22.3 116.24-23.65 116.62-24.23 116.99-24.8 118.07-25.08 119.14-25.35 120.02-26.03 120.89-26.7 123.62-29 126.34-31.3 127.42-32 128.49-32.7 130.09-32.7L130.09-32.7 132.59-32.7Q134.34-32.7 134.94-32.27 135.54-31.85 135.54-30.95L135.54-30.95 135.54-26.2Q135.54-25.15 136.44-25.15L136.44-25.15 141.79-25.15Q143.09-25.15 143.67-24.6 144.24-24.05 144.24-22.08 144.24-20.1 143.64-19.55 143.04-19 141.84-19L141.84-19 136.64-19Q135.94-19 135.74-18.65 135.54-18.3 135.54-17.65L135.54-17.65 135.54-11.65Q135.64-9.95 136.82-8.8 137.99-7.65 140.14-7.65L140.14-7.65Q141.19-7.65 142.74-8.22 144.29-8.8 144.84-8.8L144.84-8.8Q146.19-8.8 146.19-4.8L146.19-4.8Q146.19-1.9 144.64-1.3L144.64-1.3Q143.04-0.75 140.14-0.4 137.24-0.05 134.34-0.05 131.44-0.05 128.82-0.53 126.19-1 124.04-2.2L124.04-2.2Q119.84-4.65 119.84-11.55L119.84-11.55ZM172.89-17.45L172.89-17.45 168.24-17.45Q167.34-17.45 167.34-16.4L167.34-16.4 167.34-3.3Q167.34-1.6 166.74-0.8 166.14 0 164.39 0L164.39 0 154.64 0Q152.89 0 152.32-0.78 151.74-1.55 151.64-3.3L151.64-3.3Q151.44-7.55 151.44-15.8L151.44-15.8Q151.44-16.95 151.24-17.23 151.04-17.5 150.49-17.5L150.49-17.5Q148.79-17.5 148.79-20.55L148.79-20.55Q148.79-22.35 149.29-22.95 149.79-23.55 150.84-23.6L150.84-23.6Q151.14-23.6 151.39-23.85 151.64-24.1 151.64-24.4L151.64-24.4 151.64-25.45Q151.64-35.35 163.64-36.7L163.64-36.7Q166.04-37 169.67-37 173.29-37 177.34-35.65L177.34-35.65Q179.09-35.05 179.09-31.63 179.09-28.2 177.49-28.2L177.49-28.2Q176.79-28.2 174.99-28.78 173.19-29.35 171.94-29.35L171.94-29.35Q169.64-29.35 168.49-28.08 167.34-26.8 167.34-24.95L167.34-24.95Q167.34-23.6 168.44-23.6L168.44-23.6 172.94-23.6Q174.14-23.6 174.74-23.05 175.34-22.5 175.34-20.53 175.34-18.55 174.77-18 174.19-17.45 172.89-17.45ZM195.79-12.5Q195.79-6.9 198.74-6.9 201.69-6.9 201.69-12.5L201.69-12.5Q201.69-15.05 201.09-16.43 200.49-17.8 198.74-17.8 196.99-17.8 196.39-16.43 195.79-15.05 195.79-12.5L195.79-12.5ZM217.39-12.5Q217.39 1.1 198.74 1.1 180.09 1.1 180.09-12.5L180.09-12.5Q180.09-18.95 184.84-22.5 189.59-26.05 198.74-26.05 207.89-26.05 212.64-22.5 217.39-18.95 217.39-12.5L217.39-12.5ZM225.64-36.55L225.64-36.55 235.24-36.55Q236.89-36.55 237.44-35.77 237.99-35 238.14-33.3L238.14-33.3Q238.44-27.3 238.44-16.73 238.44-6.15 238.04-2.15L238.04-2.15Q237.94-1.35 237.24-0.7 236.54-0.05 234.76 0.08 232.99 0.2 230.59 0.2 228.19 0.2 226.29 0.1L226.29 0.1Q223.04-0.15 222.89-2.15L222.89-2.15Q222.39-6.5 222.39-17.57 222.39-28.65 222.79-33.3L222.79-33.3Q222.94-35 223.46-35.77 223.99-36.55 225.64-36.55ZM247.63-25.3L247.63-25.3 257.38-25.3Q259.08-25.3 259.66-24.55 260.23-23.8 260.41-21.23 260.58-18.65 260.58-11.83 260.58-5 260.28-2.2L260.28-2.2Q260.13-1.35 259.43-0.7 258.73-0.05 256.96 0.08 255.18 0.2 252.73 0.2 250.28 0.2 248.28 0.08 246.28-0.05 245.58-0.7 244.88-1.35 244.78-2.2L244.78-2.2Q244.43-5.45 244.43-12.18 244.43-18.9 244.63-21.35 244.83-23.8 245.38-24.55 245.93-25.3 247.63-25.3ZM253.03-37.1L253.03-37.1Q256.33-37.1 258.01-35.77 259.68-34.45 259.68-32.15L259.68-32.15Q259.68-26.75 252.48-26.75L252.48-26.75Q249.58-26.75 247.53-28 245.48-29.25 245.48-31.75L245.48-31.75Q245.48-37.1 253.03-37.1ZM281.28-12.5Q281.28-6.9 284.23-6.9 287.18-6.9 287.18-12.5L287.18-12.5Q287.18-15.05 286.58-16.43 285.98-17.8 284.23-17.8 282.48-17.8 281.88-16.43 281.28-15.05 281.28-12.5L281.28-12.5ZM302.88-12.5Q302.88 1.1 284.23 1.1 265.58 1.1 265.58-12.5L265.58-12.5Q265.58-18.95 270.33-22.5 275.08-26.05 284.23-26.05 293.38-26.05 298.13-22.5 302.88-18.95 302.88-12.5L302.88-12.5Z" opacity="1" transform="matrix(1,0,0,1,0,0)" fill="#ffffff" class="wordmark-text-0" data-fill-palette-color="primary" id="text-0"></path></svg></g></svg></g></svg></g></svg></g><g transform="matrix(1,0,0,1,0,0.1508674337168543)"><svg viewBox="0 0 71.90277692037508 60.346973486743366" height="60.346973486743366" width="71.90277692037508"><g><svg xmlns="http://www.w3.org/2000/svg" xmlns:xlink="http://www.w3.org/1999/xlink" version="1.1" x="0" y="0" viewBox="12 20 56 47" enable-background="new 0 0 80 80" xml:space="preserve" height="60.346973486743366" width="71.90277692037508" class="icon-icon-0" data-fill-palette-color="accent" id="icon-0"><g fill="#bb84e8" data-fill-palette-color="accent"><path fill="#ffffff" d="M36.7 48.8L36.7 48.8c-1.5 0-2.7-1.2-2.7-2.6V36c0-1.4 1.2-2.6 2.6-2.6 0.4 0 0.8 0.1 1.2 0.3l9.6 5.1c0.9 0.5 1.4 1.3 1.4 2.3 0 1-0.5 1.9-1.4 2.3l-9.6 5.1C37.5 48.7 37.1 48.8 36.7 48.8zM36.6 35.4c-0.3 0-0.6 0.2-0.6 0.6v10.2c0 0.5 0.6 0.7 0.9 0.5l9.6-5.1c0.3-0.2 0.3-0.4 0.3-0.5 0-0.1 0-0.4-0.3-0.5l-9.6-5.1C36.8 35.4 36.7 35.4 36.6 35.4z" data-fill-palette-color="accent"></path></g><g fill="#bb84e8" data-fill-palette-color="accent"><path fill="#ffffff" d="M65 67H15c-1.7 0-3-1.3-3-3V29c0-1.7 1.3-3 3-3h50c1.7 0 3 1.3 3 3v35C68 65.7 66.7 67 65 67zM15 28c-0.6 0-1 0.4-1 1v35c0 0.6 0.4 1 1 1h50c0.6 0 1-0.4 1-1V29c0-0.6-0.4-1-1-1H15z" data-fill-palette-color="accent"></path></g><g fill="#bb84e8" data-fill-palette-color="accent"><polygon fill="#ffffff" points="48,26 46,26 46,22 34,22 34,26 32,26 32,20 48,20  " data-fill-palette-color="accent"></polygon></g><g fill="#bb84e8" data-fill-palette-color="accent"><rect x="13" y="40" fill="#ffffff" width="19" height="2" data-fill-palette-color="accent"></rect></g><g fill="#bb84e8" data-fill-palette-color="accent"><rect x="51" y="40" fill="#ffffff" width="16" height="2" data-fill-palette-color="accent"></rect></g></svg></g></svg></g></svg></g><defs></defs></svg><rect width="395.52" height="47.84561766450349" fill="none" stroke="none" visibility="hidden"></rect></g></svg></g></svg>